<?xml version="1.0" encoding="UTF-8"?>
<svg xmlns="http://www.w3.org/2000/svg" style="display: none;">
<symbol id="arrow-up-to-line" viewBox="0 0 384 512">
<path d="M16 32C7.2 32 0 39.2 0 48s7.2 16 16 16l352 0c8.8 0 16-7.2 16-16s-7.2-16-16-16L16 32zM203.3 132.7c-6.2-6.2-16.4-6.2-22.6 0l-128 128c-6.2 6.2-6.2 16.4 0 22.6s16.4 6.2 22.6 0L176 182.6 176 288l0 176c0 8.8 7.2 16 16 16s16-7.2 16-16l0-176 0-105.4L308.7 283.3c6.2 6.2 16.4 6.2 22.6 0s6.2-16.4 0-22.6l-128-128z"/>
</symbol>
<symbol id="magnifying-glass" viewBox="0 0 512 512">
<path d="M384 208A176 176 0 1 0 32 208a176 176 0 1 0 352 0zM343.3 366C307 397.2 259.7 416 208 416C93.1 416 0 322.9 0 208S93.1 0 208 0S416 93.1 416 208c0 51.7-18.8 99-50 135.3L507.3 484.7c6.2 6.2 6.2 16.4 0 22.6s-16.4 6.2-22.6 0L343.3 366z"/>
</symbol>
<symbol id="minus" viewBox="0 0 448 512">
<path d="M432 256c0 8.8-7.2 16-16 16L32 272c-8.8 0-16-7.2-16-16s7.2-16 16-16l384 0c8.8 0 16 7.2 16 16z"/>
</symbol>
<symbol id="circle-xmark" viewBox="0 0 512 512">
<path d="M256 32a224 224 0 1 1 0 448 224 224 0 1 1 0-448zm0 480A256 256 0 1 0 256 0a256 256 0 1 0 0 512zM180.7 180.7c-6.2 6.2-6.2 16.4 0 22.6L233.4 256l-52.7 52.7c-6.2 6.2-6.2 16.4 0 22.6s16.4 6.2 22.6 0L256 278.6l52.7 52.7c6.2 6.2 16.4 6.2 22.6 0s6.2-16.4 0-22.6L278.6 256l52.7-52.7c6.2-6.2 6.2-16.4 0-22.6s-16.4-6.2-22.6 0L256 233.4l-52.7-52.7c-6.2-6.2-16.4-6.2-22.6 0z"/>
</symbol>
<symbol id="arrow-right" viewBox="0 0 448 512">
<path d="M443.3 267.3c6.2-6.2 6.2-16.4 0-22.6l-176-176c-6.2-6.2-16.4-6.2-22.6 0s-6.2 16.4 0 22.6L393.4 240 16 240c-8.8 0-16 7.2-16 16s7.2 16 16 16l377.4 0L244.7 420.7c-6.2 6.2-6.2 16.4 0 22.6s16.4 6.2 22.6 0l176-176z"/>
</symbol>
<symbol id="chevron-right" viewBox="0 0 320 512">
<path d="M299.3 244.7c6.2 6.2 6.2 16.4 0 22.6l-192 192c-6.2 6.2-16.4 6.2-22.6 0s-6.2-16.4 0-22.6L265.4 256 84.7 75.3c-6.2-6.2-6.2-16.4 0-22.6s16.4-6.2 22.6 0l192 192z"/>
</symbol>
<symbol id="arrow-right-from-bracket" viewBox="0 0 512 512">
<path d="M507.3 267.3c6.2-6.2 6.2-16.4 0-22.6l-128-128c-6.2-6.2-16.4-6.2-22.6 0s-6.2 16.4 0 22.6L457.4 240 176 240c-8.8 0-16 7.2-16 16s7.2 16 16 16l281.4 0L356.7 372.7c-6.2 6.2-6.2 16.4 0 22.6s16.4 6.2 22.6 0l128-128zM176 64c8.8 0 16-7.2 16-16s-7.2-16-16-16L80 32C35.8 32 0 67.8 0 112L0 400c0 44.2 35.8 80 80 80l96 0c8.8 0 16-7.2 16-16s-7.2-16-16-16l-96 0c-26.5 0-48-21.5-48-48l0-288c0-26.5 21.5-48 48-48l96 0z"/>
</symbol>
<symbol id="sliders" viewBox="0 0 512 512">
<path d="M0 416c0 8.8 7.2 16 16 16l65.6 0c7.4 36.5 39.7 64 78.4 64s71-27.5 78.4-64L496 432c8.8 0 16-7.2 16-16s-7.2-16-16-16l-257.6 0c-7.4-36.5-39.7-64-78.4-64s-71 27.5-78.4 64L16 400c-8.8 0-16 7.2-16 16zm112 0a48 48 0 1 1 96 0 48 48 0 1 1 -96 0zM304 256a48 48 0 1 1 96 0 48 48 0 1 1 -96 0zm48-80c-38.7 0-71 27.5-78.4 64L16 240c-8.8 0-16 7.2-16 16s7.2 16 16 16l257.6 0c7.4 36.5 39.7 64 78.4 64s71-27.5 78.4-64l65.6 0c8.8 0 16-7.2 16-16s-7.2-16-16-16l-65.6 0c-7.4-36.5-39.7-64-78.4-64zM192 144a48 48 0 1 1 0-96 48 48 0 1 1 0 96zm78.4-64C263 43.5 230.7 16 192 16s-71 27.5-78.4 64L16 80C7.2 80 0 87.2 0 96s7.2 16 16 16l97.6 0c7.4 36.5 39.7 64 78.4 64s71-27.5 78.4-64L496 112c8.8 0 16-7.2 16-16s-7.2-16-16-16L270.4 80z"/>
</symbol>
<symbol id="xmark" viewBox="0 0 384 512">
<path d="M324.5 411.1c6.2 6.2 16.4 6.2 22.6 0s6.2-16.4 0-22.6L214.6 256 347.1 123.5c6.2-6.2 6.2-16.4 0-22.6s-16.4-6.2-22.6 0L192 233.4 59.5 100.9c-6.2-6.2-16.4-6.2-22.6 0s-6.2 16.4 0 22.6L169.4 256 36.9 388.5c-6.2 6.2-6.2 16.4 0 22.6s16.4 6.2 22.6 0L192 278.6 324.5 411.1z"/>
</symbol>
<symbol id="chevron-left" viewBox="0 0 320 512">
<path d="M20.7 267.3c-6.2-6.2-6.2-16.4 0-22.6l192-192c6.2-6.2 16.4-6.2 22.6 0s6.2 16.4 0 22.6L54.6 256 235.3 436.7c6.2 6.2 6.2 16.4 0 22.6s-16.4 6.2-22.6 0l-192-192z"/>
</symbol>
<symbol id="chevron-down" viewBox="0 0 512 512">
<path d="M267.3 395.3c-6.2 6.2-16.4 6.2-22.6 0l-192-192c-6.2-6.2-6.2-16.4 0-22.6s16.4-6.2 22.6 0L256 361.4 436.7 180.7c6.2-6.2 16.4-6.2 22.6 0s6.2 16.4 0 22.6l-192 192z"/>
</symbol>
<symbol id="chevron-up" viewBox="0 0 512 512">
<path d="M244.7 116.7c6.2-6.2 16.4-6.2 22.6 0l192 192c6.2 6.2 6.2 16.4 0 22.6s-16.4 6.2-22.6 0L256 150.6 75.3 331.3c-6.2 6.2-16.4 6.2-22.6 0s-6.2-16.4 0-22.6l192-192z"/>
</symbol>
<symbol id="arrow-left" viewBox="0 0 448 512">
<path d="M4.7 244.7c-6.2 6.2-6.2 16.4 0 22.6l176 176c6.2 6.2 16.4 6.2 22.6 0s6.2-16.4 0-22.6L54.6 272 432 272c8.8 0 16-7.2 16-16s-7.2-16-16-16L54.6 240 203.3 91.3c6.2-6.2 6.2-16.4 0-22.6s-16.4-6.2-22.6 0l-176 176z"/>
</symbol>
<symbol id="bars" viewBox="0 0 448 512">
<path d="M0 80c0-8.8 7.2-16 16-16H432c8.8 0 16 7.2 16 16s-7.2 16-16 16H16C7.2 96 0 88.8 0 80zM0 240c0-8.8 7.2-16 16-16H432c8.8 0 16 7.2 16 16s-7.2 16-16 16H16c-8.8 0-16-7.2-16-16zM448 400c0 8.8-7.2 16-16 16H16c-8.8 0-16-7.2-16-16s7.2-16 16-16H432c8.8 0 16 7.2 16 16z"/>
</symbol>
<symbol id="plus" viewBox="0 0 448 512">
<path d="M240 64c0-8.8-7.2-16-16-16s-16 7.2-16 16V240H32c-8.8 0-16 7.2-16 16s7.2 16 16 16H208V448c0 8.8 7.2 16 16 16s16-7.2 16-16V272H416c8.8 0 16-7.2 16-16s-7.2-16-16-16H240V64z"/>
</symbol>
<symbol id="check" viewBox="0 0 448 512">
<path d="M443.3 100.7c6.2 6.2 6.2 16.4 0 22.6l-272 272c-6.2 6.2-16.4 6.2-22.6 0l-144-144c-6.2-6.2-6.2-16.4 0-22.6s16.4-6.2 22.6 0L160 361.4 420.7 100.7c6.2-6.2 16.4-6.2 22.6 0z"/>
</symbol>
</svg>