<?xml version="1.0" encoding="UTF-8"?>
<svg xmlns="http://www.w3.org/2000/svg" style="display: none;">
<symbol id="greater-than" viewBox="0 0 384 512">
<path d="M2.5 77.3c-5.9 11.9-1.1 26.3 10.7 32.2L306.3 256 13.3 402.5C1.4 408.5-3.4 422.9 2.5 434.7s20.3 16.7 32.2 10.7l336-168c8.1-4.1 13.3-12.4 13.3-21.5s-5.1-17.4-13.3-21.5l-336-168C22.9 60.6 8.5 65.4 2.5 77.3z"/>
</symbol>
<symbol id="arrow-right" viewBox="0 0 448 512">
<path d="M440.6 273.4c4.7-4.5 7.4-10.8 7.4-17.4s-2.7-12.8-7.4-17.4l-176-168c-9.6-9.2-24.8-8.8-33.9 .8s-8.8 24.8 .8 33.9L364.1 232 24 232c-13.3 0-24 10.7-24 24s10.7 24 24 24l340.1 0L231.4 406.6c-9.6 9.2-9.9 24.3-.8 33.9s24.3 9.9 33.9 .8l176-168z"/>
</symbol>
<symbol id="angle-left" viewBox="0 0 320 512">
<path d="M47 239c-9.4 9.4-9.4 24.6 0 33.9L207 433c9.4 9.4 24.6 9.4 33.9 0s9.4-24.6 0-33.9L97.9 256 241 113c9.4-9.4 9.4-24.6 0-33.9s-24.6-9.4-33.9 0L47 239z"/>
</symbol>
<symbol id="chevron-left" viewBox="0 0 320 512">
<path d="M15 239c-9.4 9.4-9.4 24.6 0 33.9L207 465c9.4 9.4 24.6 9.4 33.9 0s9.4-24.6 0-33.9L65.9 256 241 81c9.4-9.4 9.4-24.6 0-33.9s-24.6-9.4-33.9 0L15 239z"/>
</symbol>
<symbol id="rotate-left" viewBox="0 0 512 512">
<path d="M140.8 122.9C171.7 96.2 212 80 256 80c97.2 0 176 78.8 176 176s-78.8 176-176 176c-39.7 0-76.2-13.1-105.6-35.2c-10.6-8-25.6-5.8-33.6 4.8s-5.8 25.6 4.8 33.6C159 463.3 205.6 480 256 480c123.7 0 224-100.3 224-224S379.7 32 256 32c-57.3 0-109.6 21.5-149.2 56.9L76.3 58.3C69.7 51.7 60.7 48 51.3 48C31.8 48 16 63.8 16 83.3V200c0 13.3 10.7 24 24 24H156.7c19.5 0 35.3-15.8 35.3-35.3c0-9.4-3.7-18.3-10.3-25l-40.8-40.8zm-76.8-9L126.1 176H64V113.9z"/>
</symbol>
<symbol id="plus" viewBox="0 0 448 512">
<path d="M248 72c0-13.3-10.7-24-24-24s-24 10.7-24 24V232H40c-13.3 0-24 10.7-24 24s10.7 24 24 24H200V440c0 13.3 10.7 24 24 24s24-10.7 24-24V280H408c13.3 0 24-10.7 24-24s-10.7-24-24-24H248V72z"/>
</symbol>
<symbol id="square" viewBox="0 0 448 512">
<path d="M384 80c8.8 0 16 7.2 16 16V416c0 8.8-7.2 16-16 16H64c-8.8 0-16-7.2-16-16V96c0-8.8 7.2-16 16-16H384zM64 32C28.7 32 0 60.7 0 96V416c0 35.3 28.7 64 64 64H384c35.3 0 64-28.7 64-64V96c0-35.3-28.7-64-64-64H64z"/>
</symbol>
<symbol id="chevrons-down" viewBox="0 0 512 512">
<path d="M239 465c9.4 9.4 24.6 9.4 33.9 0L465 273c9.4-9.4 9.4-24.6 0-33.9s-24.6-9.4-33.9 0l-175 175L81 239c-9.4-9.4-24.6-9.4-33.9 0s-9.4 24.6 0 33.9L239 465zM47 81L239 273c9.4 9.4 24.6 9.4 33.9 0L465 81c9.4-9.4 9.4-24.6 0-33.9s-24.6-9.4-33.9 0l-175 175L81 47c-9.4-9.4-24.6-9.4-33.9 0s-9.4 24.6 0 33.9z"/>
</symbol>
<symbol id="chevrons-up" viewBox="0 0 512 512">
<path d="M273 47c-9.4-9.4-24.6-9.4-33.9 0L47 239c-9.4 9.4-9.4 24.6 0 33.9s24.6 9.4 33.9 0l175-175L431 273c9.4 9.4 24.6 9.4 33.9 0s9.4-24.6 0-33.9L273 47zM465 431L273 239c-9.4-9.4-24.6-9.4-33.9 0L47 431c-9.4 9.4-9.4 24.6 0 33.9s24.6 9.4 33.9 0l175-175L431 465c9.4 9.4 24.6 9.4 33.9 0s9.4-24.6 0-33.9z"/>
</symbol>
<symbol id="circle-exclamation" viewBox="0 0 512 512">
<path d="M256 48a208 208 0 1 1 0 416 208 208 0 1 1 0-416zm0 464A256 256 0 1 0 256 0a256 256 0 1 0 0 512zm0-384c-13.3 0-24 10.7-24 24V264c0 13.3 10.7 24 24 24s24-10.7 24-24V152c0-13.3-10.7-24-24-24zm32 224a32 32 0 1 0 -64 0 32 32 0 1 0 64 0z"/>
</symbol>
<symbol id="bars" viewBox="0 0 448 512">
<path d="M0 88C0 74.7 10.7 64 24 64H424c13.3 0 24 10.7 24 24s-10.7 24-24 24H24C10.7 112 0 101.3 0 88zM0 248c0-13.3 10.7-24 24-24H424c13.3 0 24 10.7 24 24s-10.7 24-24 24H24c-13.3 0-24-10.7-24-24zM448 408c0 13.3-10.7 24-24 24H24c-13.3 0-24-10.7-24-24s10.7-24 24-24H424c13.3 0 24 10.7 24 24z"/>
</symbol>
<symbol id="less-than" viewBox="0 0 384 512">
<path d="M381.5 77.3c5.9 11.9 1.1 26.3-10.7 32.2L77.7 256 370.7 402.5c11.9 5.9 16.7 20.3 10.7 32.2s-20.3 16.7-32.2 10.7l-336-168C5.1 273.4 0 265.1 0 256s5.1-17.4 13.3-21.5l336-168c11.9-5.9 26.3-1.1 32.2 10.7z"/>
</symbol>
<symbol id="check" viewBox="0 0 448 512">
<path d="M441 103c9.4 9.4 9.4 24.6 0 33.9L177 401c-9.4 9.4-24.6 9.4-33.9 0L7 265c-9.4-9.4-9.4-24.6 0-33.9s24.6-9.4 33.9 0l119 119L407 103c9.4-9.4 24.6-9.4 33.9 0z"/>
</symbol>
<symbol id="xmark" viewBox="0 0 384 512">
<path d="M345 137c9.4-9.4 9.4-24.6 0-33.9s-24.6-9.4-33.9 0l-119 119L73 103c-9.4-9.4-24.6-9.4-33.9 0s-9.4 24.6 0 33.9l119 119L39 375c-9.4 9.4-9.4 24.6 0 33.9s24.6 9.4 33.9 0l119-119L311 409c9.4 9.4 24.6 9.4 33.9 0s9.4-24.6 0-33.9l-119-119L345 137z"/>
</symbol>
<symbol id="chevrons-right" viewBox="0 0 512 512">
<path d="M465 239c9.4 9.4 9.4 24.6 0 33.9L273 465c-9.4 9.4-24.6 9.4-33.9 0s-9.4-24.6 0-33.9l175-175L239 81c-9.4-9.4-9.4-24.6 0-33.9s24.6-9.4 33.9 0L465 239zM81 47L273 239c9.4 9.4 9.4 24.6 0 33.9L81 465c-9.4 9.4-24.6 9.4-33.9 0s-9.4-24.6 0-33.9l175-175L47 81c-9.4-9.4-9.4-24.6 0-33.9s24.6-9.4 33.9 0z"/>
</symbol>
<symbol id="chevron-right" viewBox="0 0 320 512">
<path d="M305 239c9.4 9.4 9.4 24.6 0 33.9L113 465c-9.4 9.4-24.6 9.4-33.9 0s-9.4-24.6 0-33.9l175-175L79 81c-9.4-9.4-9.4-24.6 0-33.9s24.6-9.4 33.9 0L305 239z"/>
</symbol>
<symbol id="chevron-up" viewBox="0 0 512 512">
<path d="M239 111c9.4-9.4 24.6-9.4 33.9 0L465 303c9.4 9.4 9.4 24.6 0 33.9s-24.6 9.4-33.9 0l-175-175L81 337c-9.4 9.4-24.6 9.4-33.9 0s-9.4-24.6 0-33.9L239 111z"/>
</symbol>
<symbol id="angle-right" viewBox="0 0 320 512">
<path d="M273 239c9.4 9.4 9.4 24.6 0 33.9L113 433c-9.4 9.4-24.6 9.4-33.9 0s-9.4-24.6 0-33.9l143-143L79 113c-9.4-9.4-9.4-24.6 0-33.9s24.6-9.4 33.9 0L273 239z"/>
</symbol>
<symbol id="arrow-up-long" viewBox="0 0 384 512">
<path d="M209 7c-9.4-9.4-24.6-9.4-33.9 0L39 143c-9.4 9.4-9.4 24.6 0 33.9s24.6 9.4 33.9 0l95-95V488c0 13.3 10.7 24 24 24s24-10.7 24-24V81.9l95 95c9.4 9.4 24.6 9.4 33.9 0s9.4-24.6 0-33.9L209 7z"/>
</symbol>
<symbol id="list" viewBox="0 0 512 512">
<path d="M40 48C26.7 48 16 58.7 16 72v48c0 13.3 10.7 24 24 24H88c13.3 0 24-10.7 24-24V72c0-13.3-10.7-24-24-24H40zM184 72c-13.3 0-24 10.7-24 24s10.7 24 24 24H488c13.3 0 24-10.7 24-24s-10.7-24-24-24H184zm0 160c-13.3 0-24 10.7-24 24s10.7 24 24 24H488c13.3 0 24-10.7 24-24s-10.7-24-24-24H184zm0 160c-13.3 0-24 10.7-24 24s10.7 24 24 24H488c13.3 0 24-10.7 24-24s-10.7-24-24-24H184zM16 232v48c0 13.3 10.7 24 24 24H88c13.3 0 24-10.7 24-24V232c0-13.3-10.7-24-24-24H40c-13.3 0-24 10.7-24 24zM40 368c-13.3 0-24 10.7-24 24v48c0 13.3 10.7 24 24 24H88c13.3 0 24-10.7 24-24V392c0-13.3-10.7-24-24-24H40z"/>
</symbol>
<symbol id="arrow-left" viewBox="0 0 448 512">
<path d="M7.4 273.4C2.7 268.8 0 262.6 0 256s2.7-12.8 7.4-17.4l176-168c9.6-9.2 24.8-8.8 33.9 .8s8.8 24.8-.8 33.9L83.9 232 424 232c13.3 0 24 10.7 24 24s-10.7 24-24 24L83.9 280 216.6 406.6c9.6 9.2 9.9 24.3 .8 33.9s-24.3 9.9-33.9 .8l-176-168z"/>
</symbol>
<symbol id="arrow-down-long" viewBox="0 0 384 512">
<path d="M175 505c9.4 9.4 24.6 9.4 33.9 0L345 369c9.4-9.4 9.4-24.6 0-33.9s-24.6-9.4-33.9 0l-95 95L216 24c0-13.3-10.7-24-24-24s-24 10.7-24 24l0 406.1L73 335c-9.4-9.4-24.6-9.4-33.9 0s-9.4 24.6 0 33.9L175 505z"/>
</symbol>
<symbol id="circle-xmark" viewBox="0 0 512 512">
<path d="M256 48a208 208 0 1 1 0 416 208 208 0 1 1 0-416zm0 464A256 256 0 1 0 256 0a256 256 0 1 0 0 512zM175 175c-9.4 9.4-9.4 24.6 0 33.9l47 47-47 47c-9.4 9.4-9.4 24.6 0 33.9s24.6 9.4 33.9 0l47-47 47 47c9.4 9.4 24.6 9.4 33.9 0s9.4-24.6 0-33.9l-47-47 47-47c9.4-9.4 9.4-24.6 0-33.9s-24.6-9.4-33.9 0l-47 47-47-47c-9.4-9.4-24.6-9.4-33.9 0z"/>
</symbol>
<symbol id="chevrons-left" viewBox="0 0 512 512">
<path d="M47 239c-9.4 9.4-9.4 24.6 0 33.9L239 465c9.4 9.4 24.6 9.4 33.9 0s9.4-24.6 0-33.9L97.9 256 273 81c9.4-9.4 9.4-24.6 0-33.9s-24.6-9.4-33.9 0L47 239zM431 47L239 239c-9.4 9.4-9.4 24.6 0 33.9L431 465c9.4 9.4 24.6 9.4 33.9 0s9.4-24.6 0-33.9l-175-175L465 81c9.4-9.4 9.4-24.6 0-33.9s-24.6-9.4-33.9 0z"/>
</symbol>
<symbol id="chevron-down" viewBox="0 0 512 512">
<path d="M239 401c9.4 9.4 24.6 9.4 33.9 0L465 209c9.4-9.4 9.4-24.6 0-33.9s-24.6-9.4-33.9 0l-175 175L81 175c-9.4-9.4-24.6-9.4-33.9 0s-9.4 24.6 0 33.9L239 401z"/>
</symbol>
</svg>