<svg width="953" height="100" viewBox="0 0 953 100" fill="none" xmlns="http://www.w3.org/2000/svg">
<g clip-path="url(#clip0_464_2789)">
<mask id="path-3-inside-1_464_2789" fill="white">
<path d="M3 42H793V58H3V42Z"/>
</mask>
<path d="M3 42H793V58H3V42Z" fill="white"/>
<path d="M793 54H3V62H793V54Z" fill="#DBDBDB" mask="url(#path-3-inside-1_464_2789)"/>
</g>
<rect x="1.5" y="40.5" width="793" height="19" stroke="#0D3AA9" stroke-width="3"/>
<mask id="path-5-inside-2_464_2789" fill="white">
<path d="M793 34C793 31.7909 794.791 30 797 30H817V70H797C794.791 70 793 68.2091 793 66V34Z"/>
</mask>
<path d="M793 34C793 31.7909 794.791 30 797 30H817V70H797C794.791 70 793 68.2091 793 66V34Z" fill="#B3C7F9"/>
<path d="M791 34C791 30.6863 793.686 28 797 28H817V32H797C795.895 32 795 32.8954 795 34H791ZM817 72H797C793.686 72 791 69.3137 791 66H795C795 67.1046 795.895 68 797 68H817V72ZM797 72C793.686 72 791 69.3137 791 66V34C791 30.6863 793.686 28 797 28V32C795.895 32 795 32.8954 795 34V66C795 67.1046 795.895 68 797 68V72ZM817 30V70V30Z" fill="#0D3AA9" mask="url(#path-5-inside-2_464_2789)"/>
<mask id="path-7-inside-3_464_2789" fill="white">
<path d="M817 14C817 11.7909 818.791 10 821 10H897V90H821C818.791 90 817 88.2091 817 86V14Z"/>
</mask>
<path d="M817 14C817 11.7909 818.791 10 821 10H897V90H821C818.791 90 817 88.2091 817 86V14Z" fill="#B3C7F9"/>
<path d="M815 14C815 10.6863 817.686 8 821 8H897V12H821C819.895 12 819 12.8954 819 14H815ZM897 92H821C817.686 92 815 89.3137 815 86H819C819 87.1046 819.895 88 821 88H897V92ZM821 92C817.686 92 815 89.3137 815 86V14C815 10.6863 817.686 8 821 8V12C819.895 12 819 12.8954 819 14V86C819 87.1046 819.895 88 821 88V92ZM897 10V90V10Z" fill="#0D3AA9" mask="url(#path-7-inside-3_464_2789)"/>
<rect x="898" y="1" width="14" height="98" rx="1" fill="#B3C7F9" stroke="#0D3AA9" stroke-width="2"/>
<mask id="path-10-inside-4_464_2789" fill="white">
<path d="M913 22H941C946.523 22 951 26.4772 951 32C951 37.5228 946.523 42 941 42H913V22Z"/>
</mask>
<path d="M913 22H941C946.523 22 951 26.4772 951 32C951 37.5228 946.523 42 941 42H913V22Z" fill="white"/>
<path d="M913 20H941C947.627 20 953 25.3726 953 32H949C949 27.5817 945.418 24 941 24H913V20ZM953 32C953 38.6274 947.627 44 941 44H913V40H941C945.418 40 949 36.4183 949 32H953ZM913 42V22V42ZM941 20C947.627 20 953 25.3726 953 32C953 38.6274 947.627 44 941 44V40C945.418 40 949 36.4183 949 32C949 27.5817 945.418 24 941 24V20Z" fill="#0D3AA9" mask="url(#path-10-inside-4_464_2789)"/>
<circle cx="924" cy="32" r="3" fill="#DBDBDB"/>
<circle cx="939" cy="32" r="4" fill="#DBDBDB"/>
<mask id="path-14-inside-5_464_2789" fill="white">
<path d="M913 58H941C946.523 58 951 62.4772 951 68C951 73.5228 946.523 78 941 78H913V58Z"/>
</mask>
<path d="M913 58H941C946.523 58 951 62.4772 951 68C951 73.5228 946.523 78 941 78H913V58Z" fill="white"/>
<path d="M913 56H941C947.627 56 953 61.3726 953 68H949C949 63.5817 945.418 60 941 60H913V56ZM953 68C953 74.6274 947.627 80 941 80H913V76H941C945.418 76 949 72.4183 949 68H953ZM913 78V58V78ZM941 56C947.627 56 953 61.3726 953 68C953 74.6274 947.627 80 941 80V76C945.418 76 949 72.4183 949 68C949 63.5817 945.418 60 941 60V56Z" fill="#0D3AA9" mask="url(#path-14-inside-5_464_2789)"/>
<circle cx="924" cy="68" r="3" fill="#DBDBDB"/>
<circle cx="939" cy="68" r="4" fill="#DBDBDB"/>
<defs>
<clipPath id="clip0_464_2789">
<rect x="3" y="42" width="790" height="16" fill="white"/>
</clipPath>
</defs>
</svg>
