<svg width="160" height="100" viewBox="0 0 160 100" fill="none" xmlns="http://www.w3.org/2000/svg">
<mask id="path-1-inside-1_464_2816" fill="white">
<path d="M0 34C0 31.7909 1.79086 30 4 30H24V70H4C1.79086 70 0 68.2091 0 66V34Z"/>
</mask>
<path d="M0 34C0 31.7909 1.79086 30 4 30H24V70H4C1.79086 70 0 68.2091 0 66V34Z" fill="#B3C7F9"/>
<path d="M-2 34C-2 30.6863 0.686292 28 4 28H24V32H4C2.89543 32 2 32.8954 2 34H-2ZM24 72H4C0.686292 72 -2 69.3137 -2 66H2C2 67.1046 2.89543 68 4 68H24V72ZM4 72C0.686292 72 -2 69.3137 -2 66V34C-2 30.6863 0.686292 28 4 28V32C2.89543 32 2 32.8954 2 34V66C2 67.1046 2.89543 68 4 68V72ZM24 30V70V30Z" fill="#0D3AA9" mask="url(#path-1-inside-1_464_2816)"/>
<mask id="path-3-inside-2_464_2816" fill="white">
<path d="M24 14C24 11.7909 25.7909 10 28 10H104V90H28C25.7909 90 24 88.2091 24 86V14Z"/>
</mask>
<path d="M24 14C24 11.7909 25.7909 10 28 10H104V90H28C25.7909 90 24 88.2091 24 86V14Z" fill="#B3C7F9"/>
<path d="M22 14C22 10.6863 24.6863 8 28 8H104V12H28C26.8954 12 26 12.8954 26 14H22ZM104 92H28C24.6863 92 22 89.3137 22 86H26C26 87.1046 26.8954 88 28 88H104V92ZM28 92C24.6863 92 22 89.3137 22 86V14C22 10.6863 24.6863 8 28 8V12C26.8954 12 26 12.8954 26 14V86C26 87.1046 26.8954 88 28 88V92ZM104 10V90V10Z" fill="#0D3AA9" mask="url(#path-3-inside-2_464_2816)"/>
<rect x="105" y="1" width="14" height="98" rx="1" fill="#B3C7F9" stroke="#0D3AA9" stroke-width="2"/>
<mask id="path-6-inside-3_464_2816" fill="white">
<path d="M120 22H148C153.523 22 158 26.4772 158 32C158 37.5228 153.523 42 148 42H120V22Z"/>
</mask>
<path d="M120 22H148C153.523 22 158 26.4772 158 32C158 37.5228 153.523 42 148 42H120V22Z" fill="white"/>
<path d="M120 20H148C154.627 20 160 25.3726 160 32H156C156 27.5817 152.418 24 148 24H120V20ZM160 32C160 38.6274 154.627 44 148 44H120V40H148C152.418 40 156 36.4183 156 32H160ZM120 42V22V42ZM148 20C154.627 20 160 25.3726 160 32C160 38.6274 154.627 44 148 44V40C152.418 40 156 36.4183 156 32C156 27.5817 152.418 24 148 24V20Z" fill="#0D3AA9" mask="url(#path-6-inside-3_464_2816)"/>
<circle cx="131" cy="32" r="3" fill="#DBDBDB"/>
<circle cx="146" cy="32" r="4" fill="#DBDBDB"/>
<mask id="path-10-inside-4_464_2816" fill="white">
<path d="M120 58H148C153.523 58 158 62.4772 158 68C158 73.5228 153.523 78 148 78H120V58Z"/>
</mask>
<path d="M120 58H148C153.523 58 158 62.4772 158 68C158 73.5228 153.523 78 148 78H120V58Z" fill="white"/>
<path d="M120 56H148C154.627 56 160 61.3726 160 68H156C156 63.5817 152.418 60 148 60H120V56ZM160 68C160 74.6274 154.627 80 148 80H120V76H148C152.418 76 156 72.4183 156 68H160ZM120 78V58V78ZM148 56C154.627 56 160 61.3726 160 68C160 74.6274 154.627 80 148 80V76C152.418 76 156 72.4183 156 68C156 63.5817 152.418 60 148 60V56Z" fill="#0D3AA9" mask="url(#path-10-inside-4_464_2816)"/>
<circle cx="131" cy="68" r="3" fill="#DBDBDB"/>
<circle cx="146" cy="68" r="4" fill="#DBDBDB"/>
</svg>
