<svg width="17" height="16" viewBox="0 0 17 16" fill="none" xmlns="http://www.w3.org/2000/svg">
<path d="M13.8167 8.33335C13.8167 8.8021 13.4261 9.19273 12.9834 9.19273H9.2334V12.9427C9.2334 13.3854 8.84277 13.75 8.40007 13.75C7.93132 13.75 7.56673 13.3854 7.56673 12.9427V9.19273H3.81673C3.34798 9.19273 2.9834 8.8021 2.9834 8.33335C2.9834 7.89065 3.34798 7.52606 3.81673 7.52606H7.56673V3.77606C7.56673 3.30731 7.93132 2.91669 8.40007 2.91669C8.84277 2.91669 9.2334 3.30731 9.2334 3.77606V7.52606H12.9834C13.4261 7.50002 13.8167 7.89065 13.8167 8.33335Z" fill="#000000"/>
</svg>
