<svg width="953" height="100" viewBox="0 0 953 100" fill="none" xmlns="http://www.w3.org/2000/svg">
<g clip-path="url(#clip0_464_2802)">
<mask id="path-3-inside-1_464_2802" fill="white">
<path d="M950 58L120 58V42L950 42V58Z"/>
</mask>
<path d="M950 58L120 58V42L950 42V58Z" fill="white"/>
<path d="M950 54L120 54V62L950 62V54Z" fill="#DBDBDB" mask="url(#path-3-inside-1_464_2802)"/>
</g>
<rect x="951.5" y="59.5" width="833" height="19" transform="rotate(-180 951.5 59.5)" stroke="#0D3AA9" stroke-width="3"/>
<mask id="path-5-inside-2_464_2802" fill="white">
<path d="M120 66C120 68.2091 118.209 70 116 70H96V30H116C118.209 30 120 31.7909 120 34V66Z"/>
</mask>
<path d="M120 66C120 68.2091 118.209 70 116 70H96V30H116C118.209 30 120 31.7909 120 34V66Z" fill="#B3C7F9"/>
<path d="M122 66C122 69.3137 119.314 72 116 72H96V68H116C117.105 68 118 67.1046 118 66H122ZM96 28H116C119.314 28 122 30.6863 122 34H118C118 32.8954 117.105 32 116 32H96V28ZM116 28C119.314 28 122 30.6863 122 34V66C122 69.3137 119.314 72 116 72V68C117.105 68 118 67.1046 118 66V34C118 32.8954 117.105 32 116 32V28ZM96 70V30V70Z" fill="#0D3AA9" mask="url(#path-5-inside-2_464_2802)"/>
<mask id="path-7-inside-3_464_2802" fill="white">
<path d="M96 86C96 88.2091 94.2091 90 92 90L16 90L16 10L92 10C94.2091 10 96 11.7909 96 14L96 86Z"/>
</mask>
<path d="M96 86C96 88.2091 94.2091 90 92 90L16 90L16 10L92 10C94.2091 10 96 11.7909 96 14L96 86Z" fill="#B3C7F9"/>
<path d="M98 86C98 89.3137 95.3137 92 92 92L16 92V88L92 88C93.1046 88 94 87.1046 94 86H98ZM16 8L92 8C95.3137 8 98 10.6863 98 14H94C94 12.8954 93.1046 12 92 12L16 12V8ZM92 8C95.3137 8 98 10.6863 98 14L98 86C98 89.3137 95.3137 92 92 92V88C93.1046 88 94 87.1046 94 86L94 14C94 12.8954 93.1046 12 92 12V8ZM16 90L16 10L16 90Z" fill="#0D3AA9" mask="url(#path-7-inside-3_464_2802)"/>
<rect x="15" y="99" width="14" height="98" rx="1" transform="rotate(-180 15 99)" fill="#B3C7F9" stroke="#0D3AA9" stroke-width="2"/>
<defs>
<clipPath id="clip0_464_2802">
<rect x="950" y="58" width="830" height="16" transform="rotate(-180 950 58)" fill="white"/>
</clipPath>
</defs>
</svg>
