<svg width="123" height="28" viewBox="0 0 123 28" fill="none" xmlns="http://www.w3.org/2000/svg">
<rect width="122.5" height="28" fill="#1E1E1E"/>
<g clip-path="url(#clip0_1_11)">
<path d="M44.1801 7.45902C47.7067 7.45902 49.9994 9.45905 49.9994 12.6713C49.9994 15.0232 48.6512 16.7708 46.5375 17.5165L50.6811 24.6218H47.6077L43.7421 17.8798H39.4728V24.6218H36.8259V7.45902H44.1801ZM39.469 9.84911V15.5165H44.0544C46.1567 15.5165 47.2421 14.3387 47.2421 12.6713C47.2421 10.9658 46.1605 9.84911 44.0544 9.84911H39.469Z" fill="white"/>
<path d="M57.4145 12.2277C60.9412 12.2277 63.2339 14.8587 63.2339 18.1093C63.2339 18.4878 63.2073 18.8817 63.1349 19.2718H53.7508C53.865 21.0921 55.4151 22.5223 57.506 22.5223C59.0179 22.5223 60.2252 21.876 61.1316 20.4496L62.9711 21.7919C61.8514 23.8149 59.6463 24.878 57.506 24.878C53.8536 24.878 51.1686 22.1705 51.1686 18.5682C51.1686 14.9467 53.7508 12.2277 57.4145 12.2277ZM60.7013 17.398C60.5489 15.6924 59.1284 14.4878 57.3879 14.4878C55.537 14.4878 54.124 15.6886 53.8117 17.398H60.7013Z" fill="white"/>
<path d="M65.5495 24.6218V12.4801H68.0555V14.0098C68.4592 13.3903 69.6055 12.2277 71.7725 12.2277C75.0973 12.2277 76.8492 14.3004 76.8492 17.2488V24.6218H74.3547V17.7804C74.3547 15.7689 73.2578 14.6063 71.3803 14.6063C69.5408 14.6063 68.044 15.7689 68.044 17.7804V24.6218H65.5495Z" fill="white"/>
<path d="M84.9766 12.2277C87.0293 12.2277 88.389 12.9849 89.284 14.136V6.81274H91.7785V24.6218H89.284V22.9659C88.389 24.117 87.0293 24.8742 84.9766 24.8742C81.5375 24.8742 78.9058 22.2164 78.9058 18.4878C78.9058 14.7555 81.5375 12.2277 84.9766 12.2277ZM81.3966 18.4878C81.3966 20.725 82.9466 22.6217 85.2774 22.6217C87.6082 22.6217 89.2687 20.725 89.2687 18.4878C89.2687 16.2507 87.593 14.4801 85.2774 14.4801C82.9466 14.4763 81.3966 16.2469 81.3966 18.4878Z" fill="white"/>
<path d="M100.138 12.2277C103.665 12.2277 105.957 14.8587 105.957 18.1093C105.957 18.4878 105.931 18.8817 105.858 19.2718H96.4744C96.5886 21.0921 98.1387 22.5223 100.229 22.5223C101.741 22.5223 102.949 21.876 103.855 20.4496L105.695 21.7919C104.575 23.8149 102.37 24.878 100.229 24.878C96.5772 24.878 93.8922 22.1705 93.8922 18.5682C93.8884 14.9467 96.4706 12.2277 100.138 12.2277ZM103.425 17.398C103.272 15.6924 101.852 14.4878 100.112 14.4878C98.2606 14.4878 96.8476 15.6886 96.5353 17.398H103.425Z" fill="white"/>
<path d="M108.368 24.6218V12.4801H110.874V14.136C111.556 12.809 112.702 12.2277 114.024 12.2277C114.968 12.2277 115.688 12.5298 115.688 12.5298L115.425 14.832C115.288 14.7823 114.744 14.5528 113.952 14.5528C112.615 14.5528 110.878 15.2603 110.878 18.006V24.6218H108.368Z" fill="white"/>
<path d="M21.6491 4.00583C18.9679 3.87963 16.7133 5.81847 16.3286 8.373C16.3134 8.49154 16.2905 8.60627 16.2715 8.72099C15.6736 11.9027 12.8895 14.3119 9.5457 14.3119C8.35364 14.3119 7.23395 14.006 6.25898 13.4706C6.14091 13.4056 6 13.4897 6 13.6235V14.3081V24.6218H16.2677V16.8894C16.2677 15.4668 17.4178 14.3119 18.8346 14.3119H21.4015C24.3074 14.3119 26.6458 11.8912 26.5315 8.94662C26.4287 6.29649 24.2884 4.13202 21.6491 4.00583Z" fill="white"/>
</g>
<defs>
<clipPath id="clip0_1_11">
<rect width="110" height="21" fill="white" transform="translate(6 4)"/>
</clipPath>
</defs>
</svg>
